<?xml version="1.0" encoding="UTF-8" standalone="no"?>
<!DOCTYPE svg PUBLIC "-//W3C//DTD SVG 1.1//EN" "http://www.w3.org/Graphics/SVG/1.1/DTD/svg11.dtd">
<svg width="100%" height="100%" viewBox="0 0 18 30" version="1.1" xmlns="http://www.w3.org/2000/svg" xmlns:xlink="http://www.w3.org/1999/xlink" xml:space="preserve" xmlns:serif="http://www.serif.com/" style="fill-rule:evenodd;clip-rule:evenodd;stroke-linejoin:round;stroke-miterlimit:1.41421;">
    <path d="M14.5,10L13,10L13,9.501C13,7.339 10.924,6 9,6C7.076,6 5,7.339 5,9.501L5,10L3.5,10C2.673,10 2,10.674 2,11.5L2,22.5C2,23.328 2.673,24 3.5,24L14.5,24C15.327,24 16,23.328 16,22.5L16,11.5C16,10.674 15.327,10 14.5,10ZM6,9.501C6,8 7.5,7 9,7C10.5,7 12,8 12,9.501L12,10L6,10L6,9.501ZM15,22.5C15,22.777 14.776,23 14.5,23L3.5,23C3.224,23 3,22.777 3,22.5L3,11.5C3,11.224 3.224,11.001 3.5,11.001L14.5,11.001C14.776,11.001 15,11.224 15,11.5L15,22.5Z" style="fill:white;fill-rule:nonzero;"/>
    <g transform="matrix(1.19506,0,0,1.19506,-1.4763,-3.59617)">
        <circle cx="8.758" cy="17.238" r="2.496" style="fill:rgb(50,166,255);"/>
    </g>
</svg>
